<svg xmlns="http://www.w3.org/2000/svg" viewBox="0 0 226.51 226.51"><defs><style>.cls-1{fill:#00b623;}.cls-2{fill:#fff;}</style></defs><g id="Layer_2" data-name="Layer 2"><g id="Layer_1-2" data-name="Layer 1"><circle class="cls-1" cx="113.25" cy="113.25" r="113.25"/><path class="cls-2" d="M18.27,137.36a28.65,28.65,0,0,0,5.42-5l0,0c3-4.31,3-11.49,2-16.77s-3.51-8.67-6.6-8.73h-.06c-2.67,0-5.62,4.37-5.94,4.85-3.25,4.59-3.23,4.75-3.2,5.08C11.1,130.54,20.15,152.07,20.53,153l.32.74,2.95-1.52-.27-.64C22.19,148.35,19.08,139.63,18.27,137.36Zm-4.63-18.71,3.1-4.13A3.79,3.79,0,0,1,19.06,113a1.91,1.91,0,0,1,1.5.78c1.82,2.06,1.88,7.69,1.75,9.68,0,0-.33,4.19-2.68,6.38-1.22,1.14-2.08,1.92-2.65,2.42C16.19,129.46,14.21,122.32,13.64,118.65Z"/><path class="cls-2" d="M77.42,70.81c-12.5,0-22.68,12.52-22.68,27.9S64.92,126.6,77.42,126.6s22.68-12.51,22.68-27.89S89.93,70.81,77.42,70.81Zm0,50.68c-9.68,0-17.57-10.22-17.57-22.78s7.89-22.79,17.57-22.79S95,86.14,95,98.71,87.11,121.49,77.42,121.49Z"/><path class="cls-2" d="M63.29,132.62c-.82-.7-12.83-11.87-15.48-14.34a14.43,14.43,0,0,0,3.34-7.7c.08-.53.16-1,.28-1.55.66-2.71-.46-13.17-6-16.56S34,94.6,33.83,94.8c-7.92,6.38-7.91,6.42-7.83,7a187.49,187.49,0,0,0,4.52,20c2.38,8.77,8.18,22.85,8.24,23l.29.7,4.46-2-.36-.7C41,138.58,37.8,129,37,126.54c1.7-1,5.38-3.42,6.77-4.33,1.11,1.18,4.43,4.39,14.51,13.57l.39.35,5.48-2.78ZM46.47,109.56c-.24,1.25-1.67,5.4-3.91,7-1.9,1.4-5.82,4-7.54,5.18-.77-2.59-2.89-10.06-4.43-18.17l5.15-4.17s3.11-2.64,5.86-2.39a3.62,3.62,0,0,1,2.59,1.44C47.65,102.77,46.6,108.88,46.47,109.56Z"/><path class="cls-2" d="M119.73,92l-8.2-17-8.25-17.14L108,55.78l7.93,15.44,7.47,15.83s4.29,8.34,3,14.61c-1.33,6.59-6.32,8.92-10.19,8.92h-.11c-3.87,0-7.74-.8-12.68-9.42l-.39-.68,5-2.57.34.66c.3.6,3.09,5.78,7,5.78a5.19,5.19,0,0,0,2.25-.54,5.38,5.38,0,0,0,2.88-3.15C121.9,97,119.8,92.18,119.73,92Z"/><path class="cls-2" d="M175.8,37.26c.52,0,12.61.63,18.79,3l.19.07,4,5.07-2-.38-5.93-1.15a84.29,84.29,0,0,1,6.53,9.82c2.4,4.27,8.22,15.52,8.71,16.63l.3.7-3.29,1.37-.31-.63c-.06-.11-5.7-11.44-8.75-16.85a102.54,102.54,0,0,0-7.7-11.71c-1.37-.14-6.7-.71-7.74-.75l-.35,0-4.06-5.28Z"/><path class="cls-2" d="M152.23,40.59A11.4,11.4,0,0,1,159.92,38c6.7,0,14.23,3.95,17.65,7.76l1,1.06-4.05.53-.25-.19c-.61-.46-6.19-4.55-12.34-4.55a12.64,12.64,0,0,0-2.06.16,7.14,7.14,0,0,0-5.8,4c-1.74,3.89-.34,9.87,4.06,17.29,3.63,6.12,11.14,12.31,18.46,12.31a7,7,0,0,0,4.32-1.24c4.12-3.21,4.21-9,4.18-10.15v-.59l4-1,.18.74c.44,1.83,2.23,11.22-5.72,16.08a12.21,12.21,0,0,1-6.45,1.73c-7.77,0-17.37-6.25-23.35-15.19C146.14,55.37,145.62,46.34,152.23,40.59Z"/><path class="cls-2" d="M135.84,45.37,139,50.13l-16.5,5.93,7.6,13.53,16.46-6.43,2.85,5.41-16.56,6.58L140.86,92l17.21-7.66,2.65,5.77-22.44,10.29-.26-.8c-1.22-3.8-10.4-22.45-11.59-24.73s-10.41-19.47-11.22-21l-.41-.77Z"/><path class="cls-2" d="M87.16,191.69a135.68,135.68,0,0,1-19.41,3.61l-.39,0-.25-.29c-.76-.91-18.79-22.34-23.85-35.28L43,159l.73-.26c.08,0,8.38-3,11-4s8.08-3.22,8.08-3.22l.64-.25L66.27,157l-.78.29c-.48.18-10.86,4-14.91,5.36,1.15,2.11,4.42,8,7.49,12.5a116.7,116.7,0,0,0,14.73-4l.54-.18,3.31,5-.93.31c-.06,0-6.66,2.22-14.31,3.85,1.53,2.13,5.34,7.36,7.79,10.18,2.12-.36,11.79-2.05,15.07-3.16l.5-.17,3.5,4.38Z"/><path class="cls-2" d="M169.35,157l-.22-.93c0-.15-3.67-15-5.41-20.3-2.75-8.45-5.82-17.72-6.85-20.44-3,1.5-7.67,3.87-8.08,4.1l-.75.42-2.45-6.4,22.61-11,.33.68c.05.1,1.21,2.47,2,4.7l.23.62-.58.3c-.27.15-5.92,3.09-8,4.12,1,2.76,5,13.76,7,21.3,3.19,11.59,4.85,18,5.06,19.73l.07.52Z"/><path class="cls-2" d="M204.52,131.74c0-.14-1.74-13.08-2.58-17.41-2.65,1.89-10.27,7.25-13.88,9.41.61,2.88,3.42,16.17,3.59,19.16l0,.42-4.58,3.12-.19-1.15c0-.15-2.53-14.71-4.8-22.8-2.33-8.25-6.39-20.36-7.34-22.44l-.3-.65,5.25-2.67.28.8c.21.57,4.84,13.4,6.53,20,4.51-2.83,11.94-7.55,13.95-9.08A147.78,147.78,0,0,0,195,89.65l-.2-.54.47-.33a16.69,16.69,0,0,1,3-1.7l.69-.25.26.69c.05.12,4.57,12.18,6.32,21s3.07,20.63,3.09,20.75l0,.39-3.9,3.46Z"/><path class="cls-2" d="M158.51,161.07c-2.78-2.21-11.24-9.51-13.57-11.52,5.23-5.81,3.89-14.28,1.05-19.9-3.11-6.18-8.78-9-12.8-9h-.12a21.93,21.93,0,0,0-7.22,1.68l-12.06,5.93.26.64c2.74,7,19.69,44.28,19.86,44.66l.26.56.61-.15a23.34,23.34,0,0,0,3.35-1.63l.64-.37-.35-.64c-.48-.9-4-9.2-6-14a89.19,89.19,0,0,0,8-4.07c2.79,2.43,13.15,10.68,13.62,11l.34.28.41-.17c.59-.25,3.15-1.82,3.65-2.13l.91-.57ZM143.25,141c-.63,3-2.65,6.11-4.81,7.35-1.87,1.07-6.85,3.48-8.7,4.36l-9.11-21,7.75-3.8s4.17-1.82,7.22-.85a10.59,10.59,0,0,1,6.2,5.79C143.33,135.94,143.77,138.44,143.25,141Z"/><path class="cls-2" d="M128.12,175.82c-1.67-1.32-10.66-9.83-14.5-13.46l-.73-.69c-3-2.84-17.12-17.32-21.38-21.68L91,139.5l-5.1,2.44v.46c-.11,4.54,6.31,42.37,7,46.67l.14.82,5.25-1.47-2.27-13.37c3.72-1.16,14-5.4,16.2-6.31,1.84,1.91,9.53,8.49,11.17,9.89l.36.3,5.27-2.34Zm-33-6.42c-.44-2.81-2.06-13.14-2.79-20.44,3.81,3.93,11.87,12.23,15.33,15.51C105.14,165.52,97.94,168.46,95.14,169.4Z"/></g></g></svg>